<svg xmlns="http://www.w3.org/2000/svg" viewBox="0 0 581.55 75.43"><defs><style>.norremarks-logo-cls-1{fill:#fff}.norremarks-logo-cls-2{fill:#caa564}</style></defs><g id="Layer_1"><path d="m160.41 58.81-26.82-29.1-1.38-1.5v29.88h-5.76V14.17h.06l26.82 29.1 1.38 1.5V14.89h5.76v43.92h-.06ZM195.67 14.17c12.36 0 22.14 9.66 22.14 22.32s-9.6 22.32-22.14 22.32-22.14-9.66-22.14-22.32 9.6-22.32 22.14-22.32Zm0 39.3c9.36 0 16.26-7.2 16.26-16.98s-6.9-16.98-16.26-16.98-16.32 7.2-16.32 16.98 6.96 16.98 16.32 16.98ZM244.84 14.89c9.48 0 15.18 4.92 15.18 13.2 0 6.48-4.2 10.68-8.82 12.12l9.78 17.88h-6.42l-8.94-16.92h-9v16.92h-5.76v-43.2h13.98Zm-8.22 4.86v16.68h8.52c5.7 0 9.12-3.12 9.12-8.34s-3.6-8.34-9.6-8.34h-8.04ZM290.02 14.89c9.48 0 15.18 4.92 15.18 13.2 0 6.48-4.2 10.68-8.82 12.12l9.78 17.88h-6.42l-8.94-16.92h-9v16.92h-5.76v-43.2h13.98Zm-8.22 4.86v16.68h8.52c5.7 0 9.12-3.12 9.12-8.34s-3.6-8.34-9.6-8.34h-8.04ZM321.22 58.09v-43.2h26.52v4.86h-20.76v14.04h17.52v4.86h-17.52v14.58h21.66v4.86h-27.42ZM370.42 30.55l-1.14-1.38v28.92h-5.58V14.17h.06l19.56 23.94 19.62-23.94h.06v43.92h-5.58V29.17l-1.14 1.38-12.96 15.66-12.9-15.66ZM433.58 14.17h.12l19.92 43.92h-6.12l-4.26-9.6h-19.26l-4.2 9.6h-6.12l19.92-43.92Zm7.56 29.58c-2.94-6.6-5.16-11.76-7.5-17.88-2.4 6.12-4.62 11.28-7.56 17.88h15.06ZM479.26 14.89c9.48 0 15.18 4.92 15.18 13.2 0 6.48-4.2 10.68-8.82 12.12l9.78 17.88h-6.42l-8.94-16.92h-9v16.92h-5.76v-43.2h13.98Zm-8.22 4.86v16.68h8.52c5.7 0 9.12-3.12 9.12-8.34s-3.6-8.34-9.6-8.34h-8.04ZM516.22 37.99l20.58-23.1h7.14l-15.9 17.34 16.14 25.86h-6.72l-13.32-21.84-7.92 8.58v13.26h-5.76v-43.2h5.76v23.1ZM554.32 56.29v-5.7c3.06 1.5 7.5 3.06 12.18 3.06 5.4 0 9.42-2.22 9.42-6.18s-2.34-6.18-9.6-8.7c-8.28-2.88-12.18-6.42-12.18-13.02 0-7.32 6.12-11.58 14.4-11.58 4.32 0 8.34 1.14 10.74 2.22v5.46c-2.4-1.26-6.54-2.52-10.44-2.52-5.34 0-9.06 2.4-9.06 6.24 0 3.54 2.1 6.06 9.48 8.64 8.28 3 12.3 6.36 12.3 12.84 0 7.38-5.7 11.76-14.76 11.76-4.98 0-9.6-1.26-12.48-2.52Z" class="norremarks-logo-cls-1"/><path d="m29.78 35.74 5.8-5.8v-.01l.65-.65.17-.17.49-.49.17-.17.66-.66 1.59-1.59 1.6-1.59v-.01l.65-.65.17-.17.49-.49.17-.17.66-.66 5.8-5.8-3.19-3.19-2.17 2.18-3.63 3.62-.66.66-.17.17-.48.49-.17.17-.66.65-3.19 3.19-.66.66-.17.17-.48.49h-.01l-.17.17-.65.66-2.18 2.17h.01l-3.63 3.63 3.19 3.19zM71.86 39.68l-5.8 5.8-.65.65-.17.17-.49.49-.17.17-.66.66-3.19 3.19-.65.65-.17.17-.49.49-.17.17-.66.66-5.8 5.8 3.19 3.19 2.73-2.73 3.07-3.07.66-.66.17-.17.48-.49.17-.17.66-.65 3.19-3.19.66-.66.17-.17.48-.49.17-.17.66-.66 2.73-2.72 3.07-3.08-3.19-3.18zM52.79 6.35l3.19 3.19 2.99-2.99c.13-.13.26-.25.39-.36.14-.12.28-.23.42-.34 2.76-2.03 6.67-1.73 9.1.7 2.42 2.42 2.72 6.34.7 9.1-.11.14-.22.28-.34.42-.11.13-.23.27-.36.39l-2.81 2.81-.66.66-.17.17-.49.49-.17.17-.66.66-3.19 3.19-.66.66-.17.17-.49.49-.17.17-.66.66-5.8 5.8 1.59 1.59 1.59 1.59 2.9-2.9 2.9-2.9.66-.66.17-.17.49-.49.17-.17.66-.66 3.19-3.19.66-.66.17-.17.49-.49.17-.17.66-.66 2.9-2.9c.07-.08.14-.15.21-.22l.29-.32c3.92-4.54 3.66-11.42-.58-15.66s-11.12-4.5-15.66-.58c-.11.09-.21.19-.32.29-.1.1-.21.19-.31.3l-2.99 2.99Z" class="norremarks-logo-cls-2"/><path d="M28.99 19.02c.09.11.19.21.29.32.1.1.19.21.3.31l2.99 2.99 3.19-3.19-2.99-2.99a6.39 6.39 0 0 1-.36-.39c-.12-.14-.23-.28-.34-.42-2.03-2.76-1.73-6.68.7-9.1s6.34-2.72 9.1-.7c.14.1.28.22.42.33.14.12.27.24.39.36l2.81 2.81.66.66.17.17.49.49.17.17.66.66 3.19 3.19.66.66.17.17.49.49.17.17.66.66 5.8 5.8 3.19-3.19-5.8-5.8-.66-.66-.17-.17-.49-.49-.17-.17-.66-.66-3.19-3.19-.66-.66-.17-.17-.49-.49-.17-.17-.66-.66-2.81-2.82c-.1-.1-.21-.2-.31-.3l-.32-.29A11.611 11.611 0 0 0 37.73 0c-2.96 0-5.92 1.13-8.16 3.36-4.24 4.24-4.5 11.12-.58 15.66ZM45.86 72.05l2.99-2.99-1.59-1.59-1.59-1.59-2.99 2.99c-.65.65-1.42 1.17-2.27 1.52-.23.09-.45.17-.69.24a7.02 7.02 0 0 1-6.95-1.76c-2.42-2.43-2.72-6.34-.7-9.1l.33-.42c.12-.14.24-.27.36-.39l2.99-2.99.65-.66.66-.66.65-.66 3.19-3.19.66-.66.66-.66.66-.66 5.97-5.97-1.59-1.59-1.59-1.59-.65.65-5.32 5.32-.66.66-.66.66-.66.66-3.84 3.84-.66.66-1.48 1.48-2.17 2.17c-.1.1-.2.21-.3.31-.1.11-.2.21-.29.32-3.91 4.54-3.66 11.42.58 15.66 3.78 3.78 9.61 4.47 14.17 1.67.13-.08.25-.15.37-.24.12-.08.24-.16.36-.25.49-.36.96-.76 1.39-1.19ZM98.27 29.56c-2.17-2.18-5.07-3.37-8.15-3.37a11.48 11.48 0 0 0-7.83 3.08c-.1.1-.21.19-.31.3l-2.99 2.99 1.59 1.59 1.59 1.59 2.99-2.99c.13-.13.26-.25.39-.36.13-.12.27-.23.42-.33a6.945 6.945 0 0 1 4.15-1.36c1.87 0 3.63.73 4.96 2.05s2.05 3.08 2.05 4.96-.73 3.63-2.05 4.96a6.965 6.965 0 0 1-4.96 2.05c-1.51 0-2.94-.47-4.14-1.36l-.42-.33c-.13-.12-.27-.24-.39-.36l-2.99-2.99-.65-.65-.66-.66-.66-.66-1.59-1.59-1.59-1.59-.65-.65-.66-.66-.66-.66-5.97-5.97-1.59 1.59-1.59 1.59 2.14 2.14 3.84 3.84.66.66.66.66.66.66 3.19 3.19.66.66.66.66.66.66 2.31 2.31.68.68c.1.1.21.2.31.3s.21.19.32.28c2.08 1.8 4.75 2.79 7.52 2.79 3.08 0 5.97-1.2 8.15-3.37s3.37-5.07 3.37-8.15-1.2-5.97-3.37-8.14Z" class="norremarks-logo-cls-2"/><path d="M90.12 49.22c-2.76 0-5.43-.99-7.52-2.79-.11-.09-.21-.19-.32-.28s-.21-.2-.31-.3l-.68-.68-2.31-2.31-.66-.66-.66-.66-.66-.66-3.19-3.19-.66-.66-.66-.66-.66-.66-3.84-3.84-2.14-2.14 1.59-1.59 1.59-1.59L75 32.52l.66.65.66.66.65.66 1.59 1.59 1.59 1.59.66.66.66.66.65.66 2.99 2.99c.13.13.26.25.39.36.14.12.27.23.42.33 1.21.89 2.64 1.36 4.14 1.36a7 7 0 0 0 4.96-2.05c1.32-1.32 2.05-3.08 2.05-4.96s-.73-3.63-2.05-4.96-3.08-2.05-4.96-2.05c-1.51 0-2.94.47-4.15 1.36l-.42.33c-.13.12-.27.24-.39.36l-2.99 2.99-1.59-1.59-1.59-1.59 2.99-2.99c.1-.1.21-.2.31-.3l.32-.29a11.48 11.48 0 0 1 7.51-2.79c3.08 0 5.97 1.2 8.15 3.37 2.18 2.18 3.37 5.07 3.37 8.14s-1.2 5.97-3.37 8.15-5.07 3.37-8.15 3.37ZM56.41 72.64c-.11-.09-.21-.19-.32-.29-.1-.1-.21-.19-.31-.3l-2.81-2.81-.66-.66-.17-.17-.49-.49-.17-.17-.66-.66-1.59-1.59-1.59-1.59-.66-.66-.17-.17-.49-.49-.17-.17-.66-.66-5.8-5.8 1.59-1.59 1.59-1.59 2.14 2.14 3.66 3.66.66.66.17.17.49.49.17.17.66.66 3.19 3.19.66.66.17.17.49.49.17.17.66.66 2.14 2.14.68.68c.13.13.26.25.39.36.14.12.27.23.42.34 2.76 2.03 6.67 1.73 9.1-.7 2.42-2.42 2.72-6.34.7-9.1-.1-.14-.22-.28-.34-.42a6.39 6.39 0 0 0-.36-.39l-2.99-2.99 3.19-3.19 2.99 2.99c.1.1.2.2.3.31.1.1.19.21.29.32 3.91 4.54 3.66 11.42-.58 15.66s-11.12 4.5-15.66.58Zm-12.66 1.08a11.484 11.484 0 0 1-14.17-1.67c-4.24-4.24-4.5-11.12-.58-15.66.09-.11.19-.21.29-.32.1-.1.19-.21.3-.31l2.17-2.17 1.48-1.48.66-.66 3.84-3.85.66-.66.66-.66.66-.66 5.32-5.32.65-.65 1.59 1.59 1.59 1.59-5.97 5.97-.66.65-.66.66-.66.66-3.19 3.19-.65.65-.66.66-.65.66-2.99 2.99c-.13.13-.24.26-.36.39-.12.14-.23.27-.33.42-2.03 2.76-1.73 6.67.7 9.1a7.004 7.004 0 0 0 6.95 1.76c.23-.07.46-.15.69-.24.85-.35 1.62-.86 2.27-1.52l2.99-2.99 1.59 1.59 1.59 1.59-2.99 2.99c-.43.43-.9.83-1.39 1.19-.12.09-.24.17-.36.25-.12.08-.24.16-.37.24ZM26.1 42.38l-.17-.17-.49-.49-.17-.17-.66-.66-3.19-3.19-.66-.66-.17-.17-.49-.49-.17-.17-.66-.66-2.82-2.82-.39-.36c-.14-.12-.28-.23-.42-.33a6.938 6.938 0 0 0-4.14-1.36c-1.87 0-3.63.73-4.96 2.05s-2.05 3.08-2.05 4.96.73 3.63 2.05 4.96a6.965 6.965 0 0 0 4.96 2.05c1.51 0 2.94-.47 4.15-1.36.14-.1.28-.22.42-.33.13-.12.26-.23.39-.36l2.99-2.99 3.19 3.19-2.99 2.99c-.1.1-.21.2-.31.3-.1.1-.21.19-.32.29-2.08 1.8-4.75 2.79-7.52 2.79-3.08 0-5.97-1.2-8.15-3.37A11.536 11.536 0 0 1 0 37.71c0-3.08 1.2-5.97 3.37-8.14 2.18-2.18 5.07-3.37 8.15-3.37 2.76 0 5.43.99 7.52 2.79.11.09.21.19.32.29.1.1.21.2.31.3l2.81 2.81.66.66.17.17.49.49.17.17.66.66 3.19 3.19.66.66.17.17.49.49.17.17.66.66 5.8 5.8-3.19 3.19-5.8-5.8-.66-.66Zm4.11-13.46 2.17-2.17.66-.66.17-.17.49-.49.17-.17.66-.66 3.19-3.19.66-.66.17-.17.49-.49.17-.17.66-.66 3.63-3.63 2.17-2.17 3.19 3.19-5.8 5.8-.66.66-.17.17-.49.49-.17.17-.66.66-1.59 1.59-1.59 1.59-.66.66-.17.17-.49.49-.17.17-.66.66-5.8 5.8-3.19-3.19 3.63-3.63ZM45.23 2.77c.11.09.22.19.32.29.1.1.21.2.31.3l2.81 2.82.66.66.17.17.49.49.17.17.66.66 3.19 3.19.66.66.17.17.49.49.17.17.66.66 5.8 5.8-3.19 3.19-5.8-5.8-.66-.66-.17-.17-.49-.49-.17-.17-.66-.66-3.19-3.19-.66-.66-.17-.17-.49-.49-.17-.17-.66-.66-2.81-2.81a6.39 6.39 0 0 0-.81-.69c-2.76-2.03-6.67-1.73-9.1.7s-2.72 6.34-.7 9.1c.11.14.22.28.34.42.12.13.23.27.36.39l2.99 2.99-3.19 3.19-2.99-2.99c-.1-.1-.2-.2-.3-.31l-.29-.32c-3.91-4.54-3.66-11.42.58-15.66C31.81 1.13 34.77 0 37.73 0c2.67 0 5.35.92 7.5 2.77Zm11.18.01c4.54-3.92 11.42-3.66 15.66.58s4.5 11.12.58 15.66c-.09.11-.19.21-.29.32-.07.07-.14.15-.21.22l-2.9 2.9-.66.66-.17.17-.49.49-.17.17-.66.66-3.19 3.19-.66.66-.17.17-.49.49-.17.17-.66.66-2.9 2.9-2.9 2.9-1.59-1.59-1.59-1.59 5.8-5.8.66-.66.17-.17.49-.49.17-.17.66-.66 3.19-3.19.66-.66.17-.17.49-.49.17-.17.66-.66 2.81-2.81c.13-.13.25-.26.36-.39.12-.14.23-.28.34-.42 2.03-2.76 1.73-6.67-.7-9.1-2.42-2.43-6.34-2.72-9.1-.7-.14.11-.28.22-.42.34-.13.12-.27.24-.39.36l-2.99 2.99-3.19-3.19 2.99-2.99c.1-.1.21-.2.31-.3l.32-.29Zm-.26 37.07 5.8 5.8-3.19 3.19-2.9-2.9-2.9-2.9-.66-.66-.17-.17-.49-.49-.17-.17-.66-.66-3.19-3.19-.66-.66-.17-.17-.49-.49-.17-.17-.66-.66-2.9-2.9-2.9-2.9 3.19-3.19 5.8 5.8.66.66.17.17.49.49.17.17.66.66 1.59 1.59 1.59 1.59.66.66.17.17.49.49.17.17.66.66Zm15.83 6.09-2.73 2.73-.66.66-.17.17-.49.49-.17.17-.66.66-3.19 3.19-.66.66-.17.17-.49.49-.17.17-.66.66-3.07 3.07-2.73 2.73-3.19-3.19 5.8-5.8.66-.66.17-.17.49-.49.17-.17.66-.66 3.19-3.19.66-.66.17-.17.49-.49.17-.17.66-.66 5.8-5.8 3.19 3.19-3.07 3.07Z" class="norremarks-logo-cls-2"/><path d="M72.65 56.39c-.09-.11-.19-.21-.29-.32-.1-.11-.19-.21-.3-.31l-2.99-2.99-3.19 3.19 2.99 2.99c.13.13.25.26.36.39.12.14.23.28.34.42 2.03 2.76 1.73 6.68-.7 9.1-2.42 2.42-6.34 2.72-9.1.7-.14-.11-.28-.22-.42-.34-.14-.12-.27-.24-.39-.36l-.68-.68-2.14-2.14-.66-.66-.17-.17-.49-.49-.17-.17-.66-.66-3.19-3.19-.66-.66-.17-.17-.49-.49-.17-.17-.66-.66-3.66-3.66-2.14-2.14-1.59 1.59-1.59 1.59 5.8 5.8.66.66.17.17.49.49.17.17.66.66 1.59 1.59 1.59 1.59.66.66.17.17.49.49.17.17.66.66 2.81 2.81c.1.1.21.2.31.3l.32.29c4.54 3.91 11.42 3.66 15.66-.58s4.5-11.12.58-15.66ZM32.56 48.84l3.19-3.19-5.8-5.8-.66-.66-.17-.17-.49-.49-.17-.17-.66-.66-3.19-3.19-.66-.66-.17-.17-.49-.49-.17-.17-.66-.66-2.81-2.81c-.1-.1-.21-.2-.31-.3-.1-.1-.21-.19-.32-.29-2.08-1.8-4.75-2.79-7.52-2.79-3.08 0-5.97 1.2-8.15 3.37C1.2 31.74 0 34.63 0 37.71s1.2 5.97 3.37 8.15c2.18 2.18 5.07 3.37 8.15 3.37 2.76 0 5.43-.99 7.52-2.79.11-.09.21-.19.32-.29.11-.1.21-.2.31-.3l2.99-2.99-3.19-3.19-2.99 2.99a6.39 6.39 0 0 1-.81.69 6.945 6.945 0 0 1-4.15 1.36 7 7 0 0 1-4.96-2.05c-1.32-1.32-2.05-3.08-2.05-4.96s.73-3.63 2.05-4.96 3.08-2.05 4.96-2.05c1.51 0 2.94.47 4.14 1.36l.42.33.39.36 2.82 2.82.66.66.17.17.49.49.17.17.66.66 3.19 3.19.66.66.17.17.49.49.17.17.66.66 5.8 5.8ZM55.32 39.02l-.48-.49-.17-.17-.66-.65-1.6-1.6-1.59-1.59-.66-.66-.17-.17-.48-.49-.17-.17-.66-.65v-.01l-5.8-5.8-3.19 3.19 2.9 2.9 2.9 2.9.66.66.17.17.48.49.17.17.66.66 3.19 3.18.66.66.17.17.48.49.17.17.66.66 2.9 2.9 2.9 2.9 3.19-3.19-5.8-5.8-.66-.66-.17-.17zM51.65 41.72l.48.49" class="norremarks-logo-cls-2"/></g></svg>
